<mxfile host="app.diagrams.net" modified="2021-09-28T15:00:00.000Z" agent="Mozilla/5.0 (Windows NT 10.0; Win64; x64) AppleWebKit/537.36 (KHTML, like Gecko) Chrome/92.0.4515.159 Safari/537.36" etag="CpsaHVmtB2UKj5xPEFIJ" version="14.4.3" type="device">
  <diagram id="C5RBs43oDa-KdzZeNtuy" name="UML Class Diagram">
    <mxGraphModel dx="683" dy="470" grid="1" gridSize="10" guides="1" tooltips="1" connect="1" arrows="1" fold="1" page="1" pageScale="1" pageWidth="827" pageHeight="1169" math="0" shadow="0">
      <root>
        <mxCell id="0" />
        <mxCell id="1" parent="0" />

        <!-- User Class -->
        <mxCell id="2" value="User" style="rounded=0;whiteSpace=wrap;html=1;" vertex="1" parent="1">
          <mxGeometry x="200" y="100" width="160" height="90" as="geometry" />
        </mxCell>
        <mxCell id="3" value="userName: String&#xa;name: String&#xa;email: String&#xa;password: String" style="text;html=1;" vertex="1" parent="2">
          <mxGeometry y="30" width="160" height="60" as="geometry" />
        </mxCell>

        <!-- Student Class -->
        <mxCell id="4" value="Student" style="rounded=0;whiteSpace=wrap;html=1;" vertex="1" parent="1">
          <mxGeometry x="100" y="250" width="160" height="90" as="geometry" />
        </mxCell>
        <mxCell id="5" value="enrolledCourses: List<Course>" style="text;html=1;" vertex="1" parent="4">
          <mxGeometry y="30" width="160" height="60" as="geometry" />
        </mxCell>

        <!-- Instructor Class -->
        <mxCell id="6" value="Instructor" style="rounded=0;whiteSpace=wrap;html=1;" vertex="1" parent="1">
          <mxGeometry x="300" y="250" width="160" height="90" as="geometry" />
        </mxCell>
        <mxCell id="7" value="courses: List<Course>" style="text;html=1;" vertex="1" parent="6">
          <mxGeometry y="30" width="160" height="60" as="geometry" />
        </mxCell>

        <!-- Course Class -->
        <mxCell id="8" value="Course" style="rounded=0;whiteSpace=wrap;html=1;" vertex="1" parent="1">
          <mxGeometry x="500" y="100" width="160" height="90" as="geometry" />
        </mxCell>
        <mxCell id="9" value="name: String&#xa;courseNumber: String&#xa;description: String&#xa;enrolledStudents: List<Student>" style="text;html=1;" vertex="1" parent="8">
          <mxGeometry y="30" width="160" height="60" as="geometry" />
        </mxCell>

        <!-- Assignment Class -->
        <mxCell id="10" value="Assignment" style="rounded=0;whiteSpace=wrap;html=1;" vertex="1" parent="1">
          <mxGeometry x="500" y="250" width="160" height="90" as="geometry" />
        </mxCell>
        <mxCell id="11" value="name: String&#xa;publishDate: Date&#xa;dueDate: Date" style="text;html=1;" vertex="1" parent="10">
          <mxGeometry y="30" width="160" height="60" as="geometry" />
        </mxCell>

        <!-- Relationships -->
        <!-- Student -> User -->
        <mxCell id="12" value="" style="edgeStyle=orthogonalEdgeStyle;" edge="1" parent="1" source="4" target="2">
          <mxGeometry relative="1" as="geometry" />
        </mxCell>
        <!-- Instructor -> User -->
        <mxCell id="13" value="" style="edgeStyle=orthogonalEdgeStyle;" edge="1" parent="1" source="6" target="2">
          <mxGeometry relative="1" as="geometry" />
        </mxCell>
        <!-- Course -> Instructor -->
        <mxCell id="14" value="" style="edgeStyle=orthogonalEdgeStyle;" edge="1" parent="1" source="8" target="6">
          <mxGeometry relative="1" as="geometry" />
        </mxCell>
        <!-- Course -> Student -->
        <mxCell id="15" value="" style="edgeStyle=orthogonalEdgeStyle;" edge="1" parent="1" source="8" target="4">
          <mxGeometry relative="1" as="geometry" />
        </mxCell>
        <!-- Assignment -> Course -->
        <mxCell id="16" value="" style="edgeStyle=orthogonalEdgeStyle;" edge="1" parent="1" source="10" target="8">
          <mxGeometry relative="1" as="geometry" />
        </mxCell>

      </root>
    </mxGraphModel>
  </diagram>
</mxfile>
